:version 1.10
:name ASF
:units
  mass 1
  length 1
  angle deg
:documentation
  ASF file generated by Kaydara
:root
  axis xyz
  order  tx ty tz rx ry rz
  position 0 0 0
  orientation 0 0 0
:bonedata
  begin
    id 1
    name RightUpLegDummy
    direction -0.718183 -0.695806 0.00816078
    length 4.904
    axis 0 0 0 xyz
  end
  begin
    id 2
    name RightUpLeg
    direction 3.53373e-006 -0.995788 0.0916898
    length 17.4976
    axis -3.49089 -0.000906625 0.000286804 xyz
    dof rx ry rz
  end
  begin
    id 3
    name RightLeg
    direction 0.00371092 -0.995096 -0.0988419
    length 16.5821
    axis 3.68512 0.0193738 -0.131023 xyz
    dof rx ry rz
  end
  begin
    id 4
    name RightFoot
    direction 0.00079151 -0.46099 0.887405
    length 3.77069
    axis 4.81691e-005 -0.120479 -0.188788 xyz
    dof rx ry rz
  end
  begin
    id 5
    name RightToes
    direction 0.00124746 -0.014064 0.9999
    length 3.85082
    axis 0.000481921 0.542163 -0.142578 xyz
    dof rx ry rz
  end
  begin
    id 6
    name SpineDummy
    direction 8.3039e-015 1 4.57515e-016
    length 4.6813
    axis 0 0 0 xyz
  end
  begin
    id 7
    name Spine
    direction -3.15643e-008 0.999988 0.00495137
    length 10.1015
    axis -0.001389 0.000121418 2.40972e-006 xyz
    dof rx ry rz
  end
  begin
    id 8
    name Spine1
    direction 0 0 0
    length 0
    axis -0.001389 0.000121451 1.30017e-006 xyz
    dof rx ry rz
  end
  begin
    id 9
    name HEadDummy
    direction -1.99912e-008 0.999999 0.00127422
    length 3.43865
    axis -0.001389 0.000121451 1.30017e-006 xyz
  end
  begin
    id 10
    name HEad
    direction -0.0222688 0.980941 0.193023
    length 5.12695
    axis -0.001389 0.000121451 1.30017e-006 xyz
    dof rx ry rz
  end
  begin
    id 11
    name LeftShoulder1Dummy
    direction 0.998891 -0.0402509 -0.0244456
    length 3.5433
    axis -0.001389 0.000121451 1.30017e-006 xyz
  end
  begin
    id 12
    name LeftShoulder1
    direction 0.99951 -0.000327763 0.0313091
    length 4.05031
    axis -0.001389 0.000121451 1.30017e-006 xyz
    dof rx ry rz
  end
  begin
    id 13
    name LeftArm
    direction 0.998561 -0.00100056 -0.0536182
    length 10.3537
    axis -23.1894 0.134784 0.967509 xyz
    dof rx ry rz
  end
  begin
    id 14
    name LeftForeArm
    direction 0.998903 0.00866432 0.046012
    length 8.70632
    axis -9.91835 -0.06569 -0.177794 xyz
    dof rx ry rz
  end
  begin
    id 15
    name LeftHand
    direction 0.992938 -0.0411637 0.11126
    length 5.32135
    axis -0.00960232 -0.00340091 0.185173 xyz
    dof rx ry rz
  end
  begin
    id 16
    name RightShoulderDummy
    direction -0.998891 -0.0402509 -0.0244414
    length 3.5433
    axis -0.001389 0.000121451 1.30017e-006 xyz
  end
  begin
    id 17
    name RightShoulder
    direction -0.99951 -0.000327807 0.0313133
    length 4.05031
    axis 0.215806 0.000203643 -0.0068026 xyz
    dof rx ry rz
  end
  begin
    id 18
    name RightArm
    direction -0.998573 -0.000999564 -0.053403
    length 10.3947
    axis -23.2009 -0.134239 -0.964101 xyz
    dof rx ry rz
  end
  begin
    id 19
    name RightForeArm
    direction -0.998898 0.00868028 0.0461306
    length 8.68355
    axis -9.92322 0.0658061 0.178868 xyz
    dof rx ry rz
  end
  begin
    id 20
    name RightHand
    direction -0.992843 -0.0414603 0.112003
    length 5.28593
    axis -0.00960638 0.00330671 -0.185228 xyz
    dof rx ry rz
  end
  begin
    id 21
    name LeftUpLegDummy
    direction 0.718183 -0.695806 0.00816078
    length 4.904
    axis 0 0 0 xyz
  end
  begin
    id 22
    name LeftUpLeg
    direction -6.81752e-006 -0.995793 0.0916337
    length 17.4976
    axis -3.48766 0.00143442 -0.000524262 xyz
    dof rx ry rz
  end
  begin
    id 23
    name LeftLeg
    direction -0.00601358 -0.995091 -0.0987824
    length 16.5821
    axis 3.68178 -0.00654042 -0.000285133 xyz
    dof rx ry rz
  end
  begin
    id 24
    name LeftFoot
    direction -0.00417578 -0.460984 0.887399
    length 3.77069
    axis 1.87233e-006 4.66016e-005 -8.6538e-006 xyz
    dof rx ry rz
  end
  begin
    id 25
    name LeftToes
    direction 0.00818058 -0.00485161 0.999955
    length 3.85048
    axis 1.06247e-005 4.65869e-005 -8.65513e-006 xyz
    dof rx ry rz
  end
:hierarchy
  begin
    root RightUpLegDummy SpineDummy LeftUpLegDummy
    RightUpLegDummy RightUpLeg
    RightUpLeg RightLeg
    RightLeg RightFoot
    RightFoot RightToes
    SpineDummy Spine
    Spine Spine1
    Spine1 HEadDummy LeftShoulder1Dummy RightShoulderDummy
    HEadDummy HEad
    LeftShoulder1Dummy LeftShoulder1
    LeftShoulder1 LeftArm
    LeftArm LeftForeArm
    LeftForeArm LeftHand
    RightShoulderDummy RightShoulder
    RightShoulder RightArm
    RightArm RightForeArm
    RightForeArm RightHand
    LeftUpLegDummy LeftUpLeg
    LeftUpLeg LeftLeg
    LeftLeg LeftFoot
    LeftFoot LeftToes
  end

:SAMPLES-PER-SECOND 30
:FRAME-RANGE 1-4244
:FULLY-SPECIFIED
:DEGREES
1
root  -65.7634 40.1476 -24.6724 -175.176 44.0004 -177.586
RightUpLeg  -3.96525 -28.7595 -9.3293
RightLeg  15.8371 -14.4711 -3.45811
RightFoot  -5.33872 -0.53209 9.43294
RightToes  -3.31784e-009 0 -3.6325e-017
Spine  9.4913 2.38218 2.99126
Spine1  -3.15669 3.77989 -6.68326
HEad  -9.9267 11.7407 -4.87873
LeftShoulder1  1.49231 -0.162781 -34.6265
LeftArm  0.563806 -0.328409 -25.8536
LeftForeArm  7.01065 -1.29015 -17.5676
LeftHand  0.166529 0.440761 -4.16937
RightShoulder  12.6661 17.2993 53.2059
RightArm  32.7606 5.77225 21.3878
RightForeArm  -3.10411 19.3399 7.83514
RightHand  0.483925 5.90257 4.63287
LeftUpLeg  -8.39446 7.91469 2.59742
LeftLeg  2.89769 1.07909 -4.17703
LeftFoot  1.5533 0.221281 -2.04759
LeftToes  1.0277e-010 -6.71454e-011 3.04227e-011
2
root  -65.8192 40.1489 -24.6953 -175.491 43.8825 -177.65
RightUpLeg  -3.15961 -29.8175 -9.36501
RightLeg  17.3068 -12.9712 -4.24343
RightFoot  -5.5815 -0.505697 9.27567
RightToes  -3.31784e-009 0 -3.6325e-017
Spine  9.3386 2.50677 3.38759
Spine1  -3.09251 3.9793 -6.97475
HEad  -9.13165 11.0922 -4.34447
LeftShoulder1  1.46993 -0.110332 -34.5976
LeftArm  0.606651 0.606438 -25.9525
LeftForeArm  6.9858 -1.81503 -17.4312
LeftHand  0.163511 0.408099 -3.90203
RightShoulder  12.8704 17.6021 53.2826
RightArm  35.8405 5.77237 21.9061
RightForeArm  -4.3282 20.5676 6.84388
RightHand  0.498303 5.97289 4.74646
LeftUpLeg  -8.11327 7.7522 2.43376
LeftLeg  2.7975 1.15123 -4.0686
LeftFoot  1.59299 0.2198 -2.02456
LeftToes  1.0277e-010 -6.71454e-011 3.04227e-011
3
root  -65.8574 40.1419 -24.6902 -175.826 44.0697 -177.879
RightUpLeg  -2.31643 -30.0938 -9.5085
RightLeg  18.1569 -12.7662 -4.70029
RightFoot  -6.15222 -0.463707 9.28727
RightToes  -3.31784e-009 0 -3.6325e-017
Spine  9.10124 2.65061 3.61359
Spine1  -3.12424 4.17012 -7.22349
HEad  -8.26533 10.7857 -3.92069
LeftShoulder1  1.45402 -0.0749284 -34.5554
LeftArm  1.10756 1.51313 -26.1959
LeftForeArm  6.71226 -2.34286 -17.3405
LeftHand  0.171978 0.310322 -4.00833
RightShoulder  13.0249 17.7872 53.4455
RightArm  37.8081 5.66602 22.3325
RightForeArm  -4.66971 21.1414 6.41103
RightHand  0.511248 6.13952 4.79821
LeftUpLeg  -7.91921 7.52762 2.20434
LeftLeg  2.74052 1.44628 -3.92069
LeftFoot  1.58781 0.240878 -2.21114
LeftToes  1.0277e-010 -6.71454e-011 3.04227e-011
4
root  -65.8844 40.1279 -24.6503 -176.264 44.5349 -178.37
RightUpLeg  -1.4694 -30.2941 -9.72621
RightLeg  18.2868 -13.041 -4.86001
RightFoot  -6.44201 -0.435672 9.13811
RightToes  -3.31784e-009 0 -3.6325e-017
Spine  8.94841 2.82584 3.59417
Spine1  -3.36752 4.35505 -7.41465
HEad  -7.44395 10.0008 -3.46375
LeftShoulder1  1.44785 -0.0623185 -34.5264
LeftArm  2.0792 2.25332 -26.5684
LeftForeArm  6.2883 -2.71064 -17.3427
LeftHand  0.187843 0.192416 -4.25842
RightShoulder  13.0005 17.6539 53.6742
RightArm  39.3814 5.44744 22.6328
RightForeArm  -5.02177 21.4094 6.24202
RightHand  0.518654 6.14591 4.86941
LeftUpLeg  -7.80066 7.25909 1.81802
LeftLeg  2.63878 2.17394 -3.76873
LeftFoot  1.66341 0.239509 -2.19019
LeftToes  1.0277e-010 -6.71454e-011 3.04227e-011
5
root  -65.9102 40.1028 -24.5776 -176.798 45.2962 -178.934
RightUpLeg  -0.597891 -29.9593 -9.82539
RightLeg  17.7682 -13.7095 -4.78287
RightFoot  -6.15901 -0.456748 9.14559
RightToes  -3.31784e-009 0 -3.6325e-017
Spine  8.86098 2.92992 3.64553
Spine1  -3.55088 4.49671 -7.72462
HEad  -6.58148 9.07343 -2.76821
LeftShoulder1  1.44072 -0.041417 -34.5637
LeftArm  2.77951 2.7943 -26.9403
LeftForeArm  5.94331 -2.88528 -17.3699
LeftHand  0.207861 0.102725 -4.61692
RightShoulder  13.076 17.6708 53.932
RightArm  39.3841 4.99702 23.0016
RightForeArm  -4.15209 20.9735 6.53258
RightHand  0.542987 6.24128 5.06593
LeftUpLeg  -7.58197 7.11507 1.50207
LeftLeg  2.43303 3.06368 -3.71533
LeftFoot  1.61753 0.264306 -2.41391
LeftToes  1.0277e-010 -6.71454e-011 3.04227e-011
6
root  -65.9314 40.0609 -24.4692 -177.444 46.2534 -179.651
RightUpLeg  0.507013 -28.9684 -10.0007
RightLeg  16.2527 -14.568 -3.85343
RightFoot  -5.39391 -0.510909 9.10793
RightToes  -3.31784e-009 0 -3.6325e-017
Spine  8.62525 2.94557 3.59807
Spine1  -3.47484 4.54966 -7.99998
HEad  -6.08078 6.80983 -2.16981
LeftShoulder1  1.43768 -0.0199589 -34.7218
LeftArm  2.58738 3.02179 -27.2636
LeftForeArm  6.10553 -2.60655 -17.4261
LeftHand  0.219959 0.0341967 -4.81272
RightShoulder  13.0728 17.5931 54.1107
RightArm  41.3203 4.36247 23.0598
RightForeArm  -5.46964 21.3494 6.33496
RightHand  0.539406 6.10938 5.09556
LeftUpLeg  -7.50209 7.0856 1.18459
LeftLeg  2.46447 4.11515 -3.75581
LeftFoot  1.49973 0.280587 -2.57459
LeftToes  1.0277e-010 -6.71454e-011 3.04227e-011
7
root  -65.948 39.9881 -24.317 -178.382 47.5093 179.205
RightUpLeg  1.6861 -25.7957 -10.2146
RightLeg  13.9504 -17.6136 -2.53898
RightFoot  -5.17889 -0.625757 10.9362
RightToes  -3.31784e-009 0 -3.6325e-017
Spine  8.37744 2.95386 3.16882
Spine1  -3.39485 4.55738 -8.29424
HEad  -5.4822 3.52491 -1.48897
LeftShoulder1  1.44535 -0.0157658 -34.9833
LeftArm  2.54062 3.06825 -27.5202
LeftForeArm  5.98727 -2.31111 -17.5122
LeftHand  0.224575 0.103311 -4.82943
RightShoulder  12.9002 17.3076 54.1309
RightArm  42.4194 4.05167 23.2954
RightForeArm  -5.20972 20.7744 6.82234
RightHand  0.559843 6.16734 5.2711
LeftUpLeg  -7.6191 7.09695 0.704868
LeftLeg  2.80566 5.36933 -3.85967
LeftFoot  1.31401 0.290281 -2.68996
LeftToes  1.0277e-010 -6.71454e-011 3.04227e-011
8
root  -65.9798 39.948 -24.1544 -179.322 49.1175 178.112
RightUpLeg  2.709 -20.7716 -10.216
RightLeg  11.1256 -24.9594 -1.00515
RightFoot  -6.44515 -0.500723 10.6538
RightToes  -3.31784e-009 0 -3.6325e-017
Spine  8.11762 2.87488 3.20719
Spine1  -3.27678 4.55244 -8.71172
HEad  -4.84216 -0.485228 -0.976129
LeftShoulder1  1.46533 -0.0306775 -35.3675
LeftArm  3.01129 2.95299 -27.6463
LeftForeArm  5.53149 -2.14275 -17.6324
LeftHand  0.228656 0.183511 -4.94272
RightShoulder  12.8486 17.2065 54.1766
RightArm  42.8811 3.50109 23.2961
RightForeArm  -4.52537 19.9946 7.525
RightHand  0.531669 6.1266 5.0093
LeftUpLeg  -7.49967 7.02409 0.310424
LeftLeg  2.71096 6.97297 -3.87492
LeftFoot  1.33669 0.320373 -2.95721
LeftToes  1.0277e-010 -6.71454e-011 3.04227e-011
9
root  -66.0132 39.9549 -23.9925 179.835 51.0158 177.223
RightUpLeg  3.45461 -15.5836 -9.9082
RightLeg  7.98778 -31.9011 0.933939
RightFoot  -7.334 -0.333762 8.09857
RightToes  -3.31784e-009 0 -3.6325e-017
Spine  7.84252 2.72852 3.73517
Spine1  -3.10646 4.5142 -9.00118
HEad  -4.27921 -4.34569 -0.831916
LeftShoulder1  1.48321 -0.0339862 -35.8231
LeftArm  3.99915 2.76326 -27.7705
LeftForeArm  5.1436 -2.16899 -17.7392
LeftHand  0.230716 0.19801 -5.02234
RightShoulder  12.6928 17.0262 53.9993
RightArm  42.4075 2.99757 23.2352
RightForeArm  -3.08366 18.7535 8.68728
RightHand  0.513813 6.16925 4.80984
LeftUpLeg  -6.99474 7.00679 0.146123
LeftLeg  1.93194 8.83442 -3.97827
LeftFoot  1.69638 0.348105 -3.13668
LeftToes  1.0277e-010 -6.71454e-011 3.04227e-011
10
root  -66.048 39.9661 -23.8338 178.858 53.2215 176.33
RightUpLeg  3.42612 -13.035 -9.76235
RightLeg  6.86857 -31.3601 1.11388
RightFoot  -7.60527 -0.305269 7.75973
RightToes  -3.31784e-009 0 -3.6325e-017
Spine  7.71044 2.51751 4.47288
Spine1  -2.94616 4.41729 -9.27319
HEad  -3.82744 -7.33007 -0.844099
LeftShoulder1  1.48964 -0.0175986 -36.1903
LeftArm  4.9221 2.83395 -28.0518
LeftForeArm  4.77757 -2.62082 -17.7124
LeftHand  0.232695 0.118658 -5.18404
RightShoulder  12.3052 16.5302 53.6654
RightArm  43.5197 2.71886 22.9112
RightForeArm  -3.56367 17.8684 9.70853
RightHand  0.506886 6.33242 4.66546
LeftUpLeg  -6.34544 6.99467 0.0533112
LeftLeg  1.16036 10.9238 -4.03
LeftFoot  1.99228 0.39579 -3.48967
LeftToes  1.0277e-010 -6.71454e-011 3.04227e-011
11
root  -66.0926 39.9769 -23.6486 178.164 55.7763 175.992
RightUpLeg  2.93729 -13.2429 -9.80723
RightLeg  7.19414 -28.8106 1.00003
RightFoot  -7.7075 -0.304705 7.93795
RightToes  -3.31784e-009 0 -3.6325e-017
Spine  7.73012 2.30693 5.43192
Spine1  -2.49101 4.30846 -9.37998
HEad  -3.70338 -9.18574 -1.2444
LeftShoulder1  1.50649 -0.0188581 -36.6398
LeftArm  6.01656 2.92262 -28.5468
LeftForeArm  4.41023 -3.39476 -17.5872
LeftHand  0.226313 0.159579 -5.08764
RightShoulder  11.9165 16.0791 53.1892
RightArm  43.9167 2.30869 22.3399
RightForeArm  -3.94955 17.3813 10.2822
RightHand  0.479363 6.4126 4.3597
LeftUpLeg  -5.9532 7.23601 0.355308
LeftLeg  1.19814 13.1794 -3.79472
LeftFoot  2.07121 0.418455 -3.66571
LeftToes  1.0277e-010 -6.71454e-011 3.04227e-011
12
root  -66.1136 39.978 -23.4338 177.796 58.3816 175.896
RightUpLeg  2.421 -13.1072 -9.53954
RightLeg  7.24988 -26.2505 1.09341
RightFoot  -7.72478 -0.313925 8.26252
RightToes  -3.31784e-009 0 -3.6325e-017
Spine  7.75911 2.06041 5.75969
Spine1  -2.17792 3.94003 -8.4785
HEad  -3.83677 -9.63693 -1.79456
LeftShoulder1  1.50811 -0.012123 -36.7637
LeftArm  6.78909 3.47373 -29.5591
LeftForeArm  4.57118 -4.1967 -17.3561
LeftHand  0.245968 0.00720084 -5.34972
RightShoulder  11.288 15.3434 52.383
RightArm  46.0106 1.91252 21.7071
RightForeArm  -5.70872 18.0658 9.77522
RightHand  0.443057 6.42398 3.99946
LeftUpLeg  -5.80475 7.60011 0.903395
LeftLeg  1.54199 15.2938 -3.49207
LeftFoot  2.02117 0.468983 -4.10809
LeftToes  1.0277e-010 -6.71454e-011 3.04227e-011
13
root  -66.0814 39.9889 -23.1697 177.4 60.8382 175.7
RightUpLeg  1.82526 -12.2133 -8.89686
RightLeg  7.35299 -24.8245 0.888045
RightFoot  -7.81137 -0.295432 7.84873
RightToes  -3.31784e-009 0 -3.6325e-017
Spine  7.55783 1.76343 5.47435
Spine1  -1.63385 3.40005 -7.03529
HEad  -4.03386 -8.96544 -2.10971
LeftShoulder1  1.51503 -0.0728194 -36.2464
LeftArm  7.33925 4.06885 -30.9684
LeftForeArm  4.99153 -4.95034 -17.0775
LeftHand  0.248678 -0.163083 -5.22024
RightShoulder  10.658 14.5267 51.7231
RightArm  48.0412 1.37504 20.9403
RightForeArm  -7.86407 19.5825 8.36739
RightHand  0.421765 6.48446 3.76837
LeftUpLeg  -5.63996 8.13035 1.59093
LeftLeg  1.89169 17.0952 -3.34911
LeftFoot  2.04286 0.500812 -4.37359
LeftToes  1.0277e-010 -6.71454e-011 3.04227e-011
14
root  -66.0031 39.9921 -22.8789 177.22 63.2151 175.738
RightUpLeg  1.3651 -11.0995 -8.01451
RightLeg  7.31118 -23.7527 0.711975
RightFoot  -7.76885 -0.280163 7.27754
RightToes  -3.31784e-009 0 -3.6325e-017
Spine  7.30858 1.34899 5.14601
Spine1  -1.0981 2.71046 -5.53377
HEad  -3.85402 -7.48244 -2.39393
LeftShoulder1  1.51944 -0.130952 -35.706
LeftArm  9.14121 4.53547 -31.8431
LeftForeArm  4.58985 -6.20993 -16.7099
LeftHand  0.280394 -0.566559 -5.43896
RightShoulder  10.0517 13.6697 51.2318
RightArm  48.4815 0.983882 20.276
RightForeArm  -9.3523 20.9731 7.06284
RightHand  0.408291 6.41291 3.66309
LeftUpLeg  -5.45057 9.2546 2.72211
LeftLeg  2.46805 18.1987 -3.63879
LeftFoot  1.86679 0.512712 -4.52587
LeftToes  1.0277e-010 -6.71454e-011 3.04227e-011
15
root  -65.8878 39.9731 -22.575 176.939 65.6113 175.784
RightUpLeg  1.03975 -10.2692 -7.17496
RightLeg  7.54024 -22.2758 0.426771
RightFoot  -7.88162 -0.275152 7.32376
RightToes  -3.31784e-009 0 -3.6325e-017
Spine  7.28381 0.9063 4.96836
Spine1  -0.729618 2.04549 -4.35046
HEad  -3.26078 -5.51381 -2.83737
LeftShoulder1  1.52653 -0.163001 -35.5384
LeftArm  11.417 4.61403 -31.8805
LeftForeArm  4.54375 -7.44045 -16.3067
LeftHand  0.292722 -0.879472 -5.36092
RightShoulder  9.45927 12.7511 50.9482
RightArm  48.1817 0.799607 19.5845
RightForeArm  -10.6298 22.2066 6.12447
RightHand  0.375056 6.3594 3.35547
LeftUpLeg  -5.33019 10.1442 3.77435
LeftLeg  3.63443 19.5421 -3.33909
LeftFoot  1.45049 0.560329 -5.07622
LeftToes  1.0277e-010 -6.71454e-011 3.04227e-011
